<svg xmlns="http://www.w3.org/2000/svg" viewBox="0 0 180 180" width="180" height="180">
  <rect width="180" height="180" rx="36" fill="#16a34a"/>
  <g transform="translate(40, 35)" fill="white">
    <!-- Sprout/Plant icon -->
    <path d="M50 10c0 0-20 15-20 40c0 15 10 25 20 25s20-10 20-25C70 25 50 10 50 10z" fill="white" opacity="0.9"/>
    <path d="M50 45v65" stroke="white" stroke-width="8" stroke-linecap="round"/>
    <path d="M50 75c-15 0-25-10-25-25c0-10 10-20 25-20" fill="none" stroke="white" stroke-width="6" stroke-linecap="round"/>
    <path d="M50 75c15 0 25-10 25-25c0-10-10-20-25-20" fill="none" stroke="white" stroke-width="6" stroke-linecap="round"/>
    <!-- Leaves -->
    <ellipse cx="25" cy="60" rx="18" ry="12" fill="white" opacity="0.85" transform="rotate(-30 25 60)"/>
    <ellipse cx="75" cy="60" rx="18" ry="12" fill="white" opacity="0.85" transform="rotate(30 75 60)"/>
  </g>
</svg>
