<svg xmlns="http://www.w3.org/2000/svg" viewBox="0 0 192 192" width="192" height="192">
  <rect width="192" height="192" rx="38" fill="#16a34a"/>
  <g transform="translate(42, 36)" fill="white">
    <!-- Sprout/Plant icon optimized for 192px -->
    <path d="M54 12c0 0-22 16-22 44c0 16 11 28 22 28s22-12 22-28C76 28 54 12 54 12z" fill="white" opacity="0.95"/>
    <path d="M54 50v70" stroke="white" stroke-width="9" stroke-linecap="round"/>
    <!-- Left leaf -->
    <ellipse cx="27" cy="65" rx="20" ry="14" fill="white" opacity="0.9" transform="rotate(-30 27 65)"/>
    <!-- Right leaf -->
    <ellipse cx="81" cy="65" rx="20" ry="14" fill="white" opacity="0.9" transform="rotate(30 81 65)"/>
    <!-- Small accent leaves -->
    <ellipse cx="35" cy="85" rx="12" ry="8" fill="white" opacity="0.8" transform="rotate(-20 35 85)"/>
    <ellipse cx="73" cy="85" rx="12" ry="8" fill="white" opacity="0.8" transform="rotate(20 73 85)"/>
  </g>
</svg>
